<mxfile host="65bd71144e">
    <diagram id="IKhkXKtY1zIoP-MGLtyw" name="Page-1">
        <mxGraphModel dx="1071" dy="787" grid="1" gridSize="10" guides="1" tooltips="1" connect="1" arrows="1" fold="1" page="1" pageScale="1" pageWidth="850" pageHeight="1100" background="#ffffff" math="0" shadow="0">
            <root>
                <mxCell id="0"/>
                <mxCell id="1" parent="0"/>
                <mxCell id="2" value="A" style="rounded=0;whiteSpace=wrap;html=1;labelBorderColor=#66FF66;perimeterSpacing=1;strokeColor=#66FF66;" vertex="1" parent="1">
                    <mxGeometry x="170" y="250" width="120" height="60" as="geometry"/>
                </mxCell>
                <mxCell id="3" value="AABB&lt;br&gt;中心对称，无旋转包围盒" style="text;html=1;align=center;verticalAlign=middle;resizable=0;points=[];autosize=1;strokeColor=none;fillColor=none;fontColor=#1A1A1A;" vertex="1" parent="1">
                    <mxGeometry x="150" y="180" width="160" height="40" as="geometry"/>
                </mxCell>
                <mxCell id="4" value="" style="rounded=0;whiteSpace=wrap;html=1;rotation=25;" vertex="1" parent="1">
                    <mxGeometry x="460" y="250" width="120" height="60" as="geometry"/>
                </mxCell>
                <mxCell id="5" value="OBB&lt;br&gt;带旋转的包围盒" style="text;html=1;align=center;verticalAlign=middle;resizable=0;points=[];autosize=1;strokeColor=none;fillColor=none;fontColor=#1A1A1A;" vertex="1" parent="1">
                    <mxGeometry x="465" y="170" width="110" height="40" as="geometry"/>
                </mxCell>
                <mxCell id="6" value="" style="ellipse;whiteSpace=wrap;html=1;aspect=fixed;fontColor=#1A1A1A;" vertex="1" parent="1">
                    <mxGeometry x="190" y="470" width="80" height="80" as="geometry"/>
                </mxCell>
                <mxCell id="7" value="Circle&lt;br&gt;圆" style="text;html=1;align=center;verticalAlign=middle;resizable=0;points=[];autosize=1;strokeColor=none;fillColor=none;fontColor=#1A1A1A;" vertex="1" parent="1">
                    <mxGeometry x="205" y="410" width="50" height="40" as="geometry"/>
                </mxCell>
                <mxCell id="8" value="" style="rhombus;whiteSpace=wrap;html=1;fontColor=#1A1A1A;" vertex="1" parent="1">
                    <mxGeometry x="570" y="580" width="80" height="80" as="geometry"/>
                </mxCell>
                <mxCell id="9" value="Convex&lt;br&gt;凸多边形" style="text;html=1;align=center;verticalAlign=middle;resizable=0;points=[];autosize=1;strokeColor=none;fillColor=none;fontColor=#1A1A1A;" vertex="1" parent="1">
                    <mxGeometry x="575" y="520" width="70" height="40" as="geometry"/>
                </mxCell>
                <mxCell id="10" value="交叉检测：&lt;br&gt;AABB &amp;amp;&amp;nbsp;AABB&lt;br&gt;OBB &amp;amp;&amp;nbsp;OBB&lt;br&gt;Circle &amp;amp;&amp;nbsp;Circle&lt;br&gt;Circle &amp;amp;&amp;nbsp;AABB&lt;br&gt;Circle &amp;amp;&amp;nbsp;OBB" style="text;html=1;align=center;verticalAlign=middle;resizable=0;points=[];autosize=1;strokeColor=none;fillColor=none;fontColor=#1A1A1A;" vertex="1" parent="1">
                    <mxGeometry x="260" y="10" width="100" height="100" as="geometry"/>
                </mxCell>
                <mxCell id="11" value="Min(x, y)" style="text;html=1;align=center;verticalAlign=middle;resizable=0;points=[];autosize=1;strokeColor=none;fillColor=none;fontColor=#1A1A1A;" vertex="1" parent="1">
                    <mxGeometry x="125" y="315" width="70" height="30" as="geometry"/>
                </mxCell>
                <mxCell id="12" value="Max(x,y)" style="text;html=1;align=center;verticalAlign=middle;resizable=0;points=[];autosize=1;strokeColor=none;fillColor=none;fontColor=#1A1A1A;" vertex="1" parent="1">
                    <mxGeometry x="275" y="230" width="70" height="30" as="geometry"/>
                </mxCell>
                <mxCell id="13" value="B" style="rounded=0;whiteSpace=wrap;html=1;labelBorderColor=#66FF66;strokeColor=#66FF66;" vertex="1" parent="1">
                    <mxGeometry x="270" y="280" width="120" height="60" as="geometry"/>
                </mxCell>
            </root>
        </mxGraphModel>
    </diagram>
</mxfile>